<?xml version="1.0" encoding="utf-8" standalone="no"?>
<!DOCTYPE svg PUBLIC "-//W3C//DTD SVG 1.1//EN"
  "http://www.w3.org/Graphics/SVG/1.1/DTD/svg11.dtd">
<svg height="720pt" version="1.1" viewBox="0 0 1008 720" width="1008pt" xmlns="http://www.w3.org/2000/svg" xmlns:xlink="http://www.w3.org/1999/xlink">
 <metadata>
  <rdf:RDF xmlns:cc="http://creativecommons.org/ns#" xmlns:dc="http://purl.org/dc/elements/1.1/" xmlns:rdf="http://www.w3.org/1999/02/22-rdf-syntax-ns#">
   <cc:Work>
    <dc:type rdf:resource="http://purl.org/dc/dcmitype/StillImage"/>
    <dc:date>2024-10-22T15:59:00.507883</dc:date>
    <dc:format>image/svg+xml</dc:format>
    <dc:creator>
     <cc:Agent>
      <dc:title>Matplotlib v3.4.3, https://matplotlib.org/</dc:title>
     </cc:Agent>
    </dc:creator>
   </cc:Work>
  </rdf:RDF>
 </metadata>
 <defs>
  <style type="text/css">*{stroke-linecap:butt;stroke-linejoin:round;}</style>
 </defs>
 <g id="figure_1">
  <g id="patch_1">
   <path d="M 0 720 
L 1008 720 
L 1008 0 
L 0 0 
z
" style="fill:#ffffff;"/>
  </g>
  <g id="axes_1">
   <g id="patch_2">
    <path d="M 126 640.8 
L 907.2 640.8 
L 907.2 86.4 
L 126 86.4 
z
" style="fill:#ffffff;"/>
   </g>
   <g id="matplotlib.axis_1">
    <g id="xtick_1">
     <g id="line2d_1">
      <path clip-path="url(#pe7079d166f)" d="M 126 640.8 
L 126 86.4 
" style="fill:none;stroke:#b0b0b0;stroke-linecap:square;"/>
     </g>
     <g id="line2d_2">
      <defs>
       <path d="M 0 0 
L 0 3.5 
" id="mdc21980349" style="stroke:#000000;stroke-width:0.8;"/>
      </defs>
      <g>
       <use style="stroke:#000000;stroke-width:0.8;" x="126" xlink:href="#mdc21980349" y="640.8"/>
      </g>
     </g>
     <g id="text_1">
      <!-- 0 -->
      <g transform="translate(122.81875 655.398438)scale(0.1 -0.1)">
       <defs>
        <path d="M 2034 4250 
Q 1547 4250 1301 3770 
Q 1056 3291 1056 2328 
Q 1056 1369 1301 889 
Q 1547 409 2034 409 
Q 2525 409 2770 889 
Q 3016 1369 3016 2328 
Q 3016 3291 2770 3770 
Q 2525 4250 2034 4250 
z
M 2034 4750 
Q 2819 4750 3233 4129 
Q 3647 3509 3647 2328 
Q 3647 1150 3233 529 
Q 2819 -91 2034 -91 
Q 1250 -91 836 529 
Q 422 1150 422 2328 
Q 422 3509 836 4129 
Q 1250 4750 2034 4750 
z
" id="DejaVuSans-30" transform="scale(0.015625)"/>
       </defs>
       <use xlink:href="#DejaVuSans-30"/>
      </g>
     </g>
    </g>
    <g id="xtick_2">
     <g id="line2d_3">
      <path clip-path="url(#pe7079d166f)" d="M 216.708995 640.8 
L 216.708995 86.4 
" style="fill:none;stroke:#b0b0b0;stroke-linecap:square;"/>
     </g>
     <g id="line2d_4">
      <g>
       <use style="stroke:#000000;stroke-width:0.8;" x="216.708995" xlink:href="#mdc21980349" y="640.8"/>
      </g>
     </g>
     <g id="text_2">
      <!-- 2 -->
      <g transform="translate(213.527745 655.398438)scale(0.1 -0.1)">
       <defs>
        <path d="M 1228 531 
L 3431 531 
L 3431 0 
L 469 0 
L 469 531 
Q 828 903 1448 1529 
Q 2069 2156 2228 2338 
Q 2531 2678 2651 2914 
Q 2772 3150 2772 3378 
Q 2772 3750 2511 3984 
Q 2250 4219 1831 4219 
Q 1534 4219 1204 4116 
Q 875 4013 500 3803 
L 500 4441 
Q 881 4594 1212 4672 
Q 1544 4750 1819 4750 
Q 2544 4750 2975 4387 
Q 3406 4025 3406 3419 
Q 3406 3131 3298 2873 
Q 3191 2616 2906 2266 
Q 2828 2175 2409 1742 
Q 1991 1309 1228 531 
z
" id="DejaVuSans-32" transform="scale(0.015625)"/>
       </defs>
       <use xlink:href="#DejaVuSans-32"/>
      </g>
     </g>
    </g>
    <g id="xtick_3">
     <g id="line2d_5">
      <path clip-path="url(#pe7079d166f)" d="M 307.417991 640.8 
L 307.417991 86.4 
" style="fill:none;stroke:#b0b0b0;stroke-linecap:square;"/>
     </g>
     <g id="line2d_6">
      <g>
       <use style="stroke:#000000;stroke-width:0.8;" x="307.417991" xlink:href="#mdc21980349" y="640.8"/>
      </g>
     </g>
     <g id="text_3">
      <!-- 4 -->
      <g transform="translate(304.236741 655.398438)scale(0.1 -0.1)">
       <defs>
        <path d="M 2419 4116 
L 825 1625 
L 2419 1625 
L 2419 4116 
z
M 2253 4666 
L 3047 4666 
L 3047 1625 
L 3713 1625 
L 3713 1100 
L 3047 1100 
L 3047 0 
L 2419 0 
L 2419 1100 
L 313 1100 
L 313 1709 
L 2253 4666 
z
" id="DejaVuSans-34" transform="scale(0.015625)"/>
       </defs>
       <use xlink:href="#DejaVuSans-34"/>
      </g>
     </g>
    </g>
    <g id="xtick_4">
     <g id="line2d_7">
      <path clip-path="url(#pe7079d166f)" d="M 398.126986 640.8 
L 398.126986 86.4 
" style="fill:none;stroke:#b0b0b0;stroke-linecap:square;"/>
     </g>
     <g id="line2d_8">
      <g>
       <use style="stroke:#000000;stroke-width:0.8;" x="398.126986" xlink:href="#mdc21980349" y="640.8"/>
      </g>
     </g>
     <g id="text_4">
      <!-- 6 -->
      <g transform="translate(394.945736 655.398438)scale(0.1 -0.1)">
       <defs>
        <path d="M 2113 2584 
Q 1688 2584 1439 2293 
Q 1191 2003 1191 1497 
Q 1191 994 1439 701 
Q 1688 409 2113 409 
Q 2538 409 2786 701 
Q 3034 994 3034 1497 
Q 3034 2003 2786 2293 
Q 2538 2584 2113 2584 
z
M 3366 4563 
L 3366 3988 
Q 3128 4100 2886 4159 
Q 2644 4219 2406 4219 
Q 1781 4219 1451 3797 
Q 1122 3375 1075 2522 
Q 1259 2794 1537 2939 
Q 1816 3084 2150 3084 
Q 2853 3084 3261 2657 
Q 3669 2231 3669 1497 
Q 3669 778 3244 343 
Q 2819 -91 2113 -91 
Q 1303 -91 875 529 
Q 447 1150 447 2328 
Q 447 3434 972 4092 
Q 1497 4750 2381 4750 
Q 2619 4750 2861 4703 
Q 3103 4656 3366 4563 
z
" id="DejaVuSans-36" transform="scale(0.015625)"/>
       </defs>
       <use xlink:href="#DejaVuSans-36"/>
      </g>
     </g>
    </g>
    <g id="xtick_5">
     <g id="line2d_9">
      <path clip-path="url(#pe7079d166f)" d="M 488.835981 640.8 
L 488.835981 86.4 
" style="fill:none;stroke:#b0b0b0;stroke-linecap:square;"/>
     </g>
     <g id="line2d_10">
      <g>
       <use style="stroke:#000000;stroke-width:0.8;" x="488.835981" xlink:href="#mdc21980349" y="640.8"/>
      </g>
     </g>
     <g id="text_5">
      <!-- 8 -->
      <g transform="translate(485.654731 655.398438)scale(0.1 -0.1)">
       <defs>
        <path d="M 2034 2216 
Q 1584 2216 1326 1975 
Q 1069 1734 1069 1313 
Q 1069 891 1326 650 
Q 1584 409 2034 409 
Q 2484 409 2743 651 
Q 3003 894 3003 1313 
Q 3003 1734 2745 1975 
Q 2488 2216 2034 2216 
z
M 1403 2484 
Q 997 2584 770 2862 
Q 544 3141 544 3541 
Q 544 4100 942 4425 
Q 1341 4750 2034 4750 
Q 2731 4750 3128 4425 
Q 3525 4100 3525 3541 
Q 3525 3141 3298 2862 
Q 3072 2584 2669 2484 
Q 3125 2378 3379 2068 
Q 3634 1759 3634 1313 
Q 3634 634 3220 271 
Q 2806 -91 2034 -91 
Q 1263 -91 848 271 
Q 434 634 434 1313 
Q 434 1759 690 2068 
Q 947 2378 1403 2484 
z
M 1172 3481 
Q 1172 3119 1398 2916 
Q 1625 2713 2034 2713 
Q 2441 2713 2670 2916 
Q 2900 3119 2900 3481 
Q 2900 3844 2670 4047 
Q 2441 4250 2034 4250 
Q 1625 4250 1398 4047 
Q 1172 3844 1172 3481 
z
" id="DejaVuSans-38" transform="scale(0.015625)"/>
       </defs>
       <use xlink:href="#DejaVuSans-38"/>
      </g>
     </g>
    </g>
    <g id="xtick_6">
     <g id="line2d_11">
      <path clip-path="url(#pe7079d166f)" d="M 579.544977 640.8 
L 579.544977 86.4 
" style="fill:none;stroke:#b0b0b0;stroke-linecap:square;"/>
     </g>
     <g id="line2d_12">
      <g>
       <use style="stroke:#000000;stroke-width:0.8;" x="579.544977" xlink:href="#mdc21980349" y="640.8"/>
      </g>
     </g>
     <g id="text_6">
      <!-- 10 -->
      <g transform="translate(573.182477 655.398438)scale(0.1 -0.1)">
       <defs>
        <path d="M 794 531 
L 1825 531 
L 1825 4091 
L 703 3866 
L 703 4441 
L 1819 4666 
L 2450 4666 
L 2450 531 
L 3481 531 
L 3481 0 
L 794 0 
L 794 531 
z
" id="DejaVuSans-31" transform="scale(0.015625)"/>
       </defs>
       <use xlink:href="#DejaVuSans-31"/>
       <use x="63.623047" xlink:href="#DejaVuSans-30"/>
      </g>
     </g>
    </g>
    <g id="xtick_7">
     <g id="line2d_13">
      <path clip-path="url(#pe7079d166f)" d="M 670.253972 640.8 
L 670.253972 86.4 
" style="fill:none;stroke:#b0b0b0;stroke-linecap:square;"/>
     </g>
     <g id="line2d_14">
      <g>
       <use style="stroke:#000000;stroke-width:0.8;" x="670.253972" xlink:href="#mdc21980349" y="640.8"/>
      </g>
     </g>
     <g id="text_7">
      <!-- 12 -->
      <g transform="translate(663.891472 655.398438)scale(0.1 -0.1)">
       <use xlink:href="#DejaVuSans-31"/>
       <use x="63.623047" xlink:href="#DejaVuSans-32"/>
      </g>
     </g>
    </g>
    <g id="xtick_8">
     <g id="line2d_15">
      <path clip-path="url(#pe7079d166f)" d="M 760.962967 640.8 
L 760.962967 86.4 
" style="fill:none;stroke:#b0b0b0;stroke-linecap:square;"/>
     </g>
     <g id="line2d_16">
      <g>
       <use style="stroke:#000000;stroke-width:0.8;" x="760.962967" xlink:href="#mdc21980349" y="640.8"/>
      </g>
     </g>
     <g id="text_8">
      <!-- 14 -->
      <g transform="translate(754.600467 655.398438)scale(0.1 -0.1)">
       <use xlink:href="#DejaVuSans-31"/>
       <use x="63.623047" xlink:href="#DejaVuSans-34"/>
      </g>
     </g>
    </g>
    <g id="xtick_9">
     <g id="line2d_17">
      <path clip-path="url(#pe7079d166f)" d="M 851.671963 640.8 
L 851.671963 86.4 
" style="fill:none;stroke:#b0b0b0;stroke-linecap:square;"/>
     </g>
     <g id="line2d_18">
      <g>
       <use style="stroke:#000000;stroke-width:0.8;" x="851.671963" xlink:href="#mdc21980349" y="640.8"/>
      </g>
     </g>
     <g id="text_9">
      <!-- 16 -->
      <g transform="translate(845.309463 655.398438)scale(0.1 -0.1)">
       <use xlink:href="#DejaVuSans-31"/>
       <use x="63.623047" xlink:href="#DejaVuSans-36"/>
      </g>
     </g>
    </g>
    <g id="xtick_10">
     <g id="line2d_19">
      <path clip-path="url(#pe7079d166f)" d="M 148.677249 640.8 
L 148.677249 86.4 
" style="fill:none;stroke:#b0b0b0;stroke-dasharray:0.8,1.32;stroke-dashoffset:0;stroke-width:0.8;"/>
     </g>
     <g id="line2d_20">
      <defs>
       <path d="M 0 0 
L 0 2 
" id="m28177ec1c7" style="stroke:#000000;stroke-width:0.6;"/>
      </defs>
      <g>
       <use style="stroke:#000000;stroke-width:0.6;" x="148.677249" xlink:href="#m28177ec1c7" y="640.8"/>
      </g>
     </g>
    </g>
    <g id="xtick_11">
     <g id="line2d_21">
      <path clip-path="url(#pe7079d166f)" d="M 171.354498 640.8 
L 171.354498 86.4 
" style="fill:none;stroke:#b0b0b0;stroke-dasharray:0.8,1.32;stroke-dashoffset:0;stroke-width:0.8;"/>
     </g>
     <g id="line2d_22">
      <g>
       <use style="stroke:#000000;stroke-width:0.6;" x="171.354498" xlink:href="#m28177ec1c7" y="640.8"/>
      </g>
     </g>
    </g>
    <g id="xtick_12">
     <g id="line2d_23">
      <path clip-path="url(#pe7079d166f)" d="M 194.031747 640.8 
L 194.031747 86.4 
" style="fill:none;stroke:#b0b0b0;stroke-dasharray:0.8,1.32;stroke-dashoffset:0;stroke-width:0.8;"/>
     </g>
     <g id="line2d_24">
      <g>
       <use style="stroke:#000000;stroke-width:0.6;" x="194.031747" xlink:href="#m28177ec1c7" y="640.8"/>
      </g>
     </g>
    </g>
    <g id="xtick_13">
     <g id="line2d_25">
      <path clip-path="url(#pe7079d166f)" d="M 239.386244 640.8 
L 239.386244 86.4 
" style="fill:none;stroke:#b0b0b0;stroke-dasharray:0.8,1.32;stroke-dashoffset:0;stroke-width:0.8;"/>
     </g>
     <g id="line2d_26">
      <g>
       <use style="stroke:#000000;stroke-width:0.6;" x="239.386244" xlink:href="#m28177ec1c7" y="640.8"/>
      </g>
     </g>
    </g>
    <g id="xtick_14">
     <g id="line2d_27">
      <path clip-path="url(#pe7079d166f)" d="M 262.063493 640.8 
L 262.063493 86.4 
" style="fill:none;stroke:#b0b0b0;stroke-dasharray:0.8,1.32;stroke-dashoffset:0;stroke-width:0.8;"/>
     </g>
     <g id="line2d_28">
      <g>
       <use style="stroke:#000000;stroke-width:0.6;" x="262.063493" xlink:href="#m28177ec1c7" y="640.8"/>
      </g>
     </g>
    </g>
    <g id="xtick_15">
     <g id="line2d_29">
      <path clip-path="url(#pe7079d166f)" d="M 284.740742 640.8 
L 284.740742 86.4 
" style="fill:none;stroke:#b0b0b0;stroke-dasharray:0.8,1.32;stroke-dashoffset:0;stroke-width:0.8;"/>
     </g>
     <g id="line2d_30">
      <g>
       <use style="stroke:#000000;stroke-width:0.6;" x="284.740742" xlink:href="#m28177ec1c7" y="640.8"/>
      </g>
     </g>
    </g>
    <g id="xtick_16">
     <g id="line2d_31">
      <path clip-path="url(#pe7079d166f)" d="M 330.09524 640.8 
L 330.09524 86.4 
" style="fill:none;stroke:#b0b0b0;stroke-dasharray:0.8,1.32;stroke-dashoffset:0;stroke-width:0.8;"/>
     </g>
     <g id="line2d_32">
      <g>
       <use style="stroke:#000000;stroke-width:0.6;" x="330.09524" xlink:href="#m28177ec1c7" y="640.8"/>
      </g>
     </g>
    </g>
    <g id="xtick_17">
     <g id="line2d_33">
      <path clip-path="url(#pe7079d166f)" d="M 352.772488 640.8 
L 352.772488 86.4 
" style="fill:none;stroke:#b0b0b0;stroke-dasharray:0.8,1.32;stroke-dashoffset:0;stroke-width:0.8;"/>
     </g>
     <g id="line2d_34">
      <g>
       <use style="stroke:#000000;stroke-width:0.6;" x="352.772488" xlink:href="#m28177ec1c7" y="640.8"/>
      </g>
     </g>
    </g>
    <g id="xtick_18">
     <g id="line2d_35">
      <path clip-path="url(#pe7079d166f)" d="M 375.449737 640.8 
L 375.449737 86.4 
" style="fill:none;stroke:#b0b0b0;stroke-dasharray:0.8,1.32;stroke-dashoffset:0;stroke-width:0.8;"/>
     </g>
     <g id="line2d_36">
      <g>
       <use style="stroke:#000000;stroke-width:0.6;" x="375.449737" xlink:href="#m28177ec1c7" y="640.8"/>
      </g>
     </g>
    </g>
    <g id="xtick_19">
     <g id="line2d_37">
      <path clip-path="url(#pe7079d166f)" d="M 420.804235 640.8 
L 420.804235 86.4 
" style="fill:none;stroke:#b0b0b0;stroke-dasharray:0.8,1.32;stroke-dashoffset:0;stroke-width:0.8;"/>
     </g>
     <g id="line2d_38">
      <g>
       <use style="stroke:#000000;stroke-width:0.6;" x="420.804235" xlink:href="#m28177ec1c7" y="640.8"/>
      </g>
     </g>
    </g>
    <g id="xtick_20">
     <g id="line2d_39">
      <path clip-path="url(#pe7079d166f)" d="M 443.481484 640.8 
L 443.481484 86.4 
" style="fill:none;stroke:#b0b0b0;stroke-dasharray:0.8,1.32;stroke-dashoffset:0;stroke-width:0.8;"/>
     </g>
     <g id="line2d_40">
      <g>
       <use style="stroke:#000000;stroke-width:0.6;" x="443.481484" xlink:href="#m28177ec1c7" y="640.8"/>
      </g>
     </g>
    </g>
    <g id="xtick_21">
     <g id="line2d_41">
      <path clip-path="url(#pe7079d166f)" d="M 466.158733 640.8 
L 466.158733 86.4 
" style="fill:none;stroke:#b0b0b0;stroke-dasharray:0.8,1.32;stroke-dashoffset:0;stroke-width:0.8;"/>
     </g>
     <g id="line2d_42">
      <g>
       <use style="stroke:#000000;stroke-width:0.6;" x="466.158733" xlink:href="#m28177ec1c7" y="640.8"/>
      </g>
     </g>
    </g>
    <g id="xtick_22">
     <g id="line2d_43">
      <path clip-path="url(#pe7079d166f)" d="M 511.51323 640.8 
L 511.51323 86.4 
" style="fill:none;stroke:#b0b0b0;stroke-dasharray:0.8,1.32;stroke-dashoffset:0;stroke-width:0.8;"/>
     </g>
     <g id="line2d_44">
      <g>
       <use style="stroke:#000000;stroke-width:0.6;" x="511.51323" xlink:href="#m28177ec1c7" y="640.8"/>
      </g>
     </g>
    </g>
    <g id="xtick_23">
     <g id="line2d_45">
      <path clip-path="url(#pe7079d166f)" d="M 534.190479 640.8 
L 534.190479 86.4 
" style="fill:none;stroke:#b0b0b0;stroke-dasharray:0.8,1.32;stroke-dashoffset:0;stroke-width:0.8;"/>
     </g>
     <g id="line2d_46">
      <g>
       <use style="stroke:#000000;stroke-width:0.6;" x="534.190479" xlink:href="#m28177ec1c7" y="640.8"/>
      </g>
     </g>
    </g>
    <g id="xtick_24">
     <g id="line2d_47">
      <path clip-path="url(#pe7079d166f)" d="M 556.867728 640.8 
L 556.867728 86.4 
" style="fill:none;stroke:#b0b0b0;stroke-dasharray:0.8,1.32;stroke-dashoffset:0;stroke-width:0.8;"/>
     </g>
     <g id="line2d_48">
      <g>
       <use style="stroke:#000000;stroke-width:0.6;" x="556.867728" xlink:href="#m28177ec1c7" y="640.8"/>
      </g>
     </g>
    </g>
    <g id="xtick_25">
     <g id="line2d_49">
      <path clip-path="url(#pe7079d166f)" d="M 602.222226 640.8 
L 602.222226 86.4 
" style="fill:none;stroke:#b0b0b0;stroke-dasharray:0.8,1.32;stroke-dashoffset:0;stroke-width:0.8;"/>
     </g>
     <g id="line2d_50">
      <g>
       <use style="stroke:#000000;stroke-width:0.6;" x="602.222226" xlink:href="#m28177ec1c7" y="640.8"/>
      </g>
     </g>
    </g>
    <g id="xtick_26">
     <g id="line2d_51">
      <path clip-path="url(#pe7079d166f)" d="M 624.899474 640.8 
L 624.899474 86.4 
" style="fill:none;stroke:#b0b0b0;stroke-dasharray:0.8,1.32;stroke-dashoffset:0;stroke-width:0.8;"/>
     </g>
     <g id="line2d_52">
      <g>
       <use style="stroke:#000000;stroke-width:0.6;" x="624.899474" xlink:href="#m28177ec1c7" y="640.8"/>
      </g>
     </g>
    </g>
    <g id="xtick_27">
     <g id="line2d_53">
      <path clip-path="url(#pe7079d166f)" d="M 647.576723 640.8 
L 647.576723 86.4 
" style="fill:none;stroke:#b0b0b0;stroke-dasharray:0.8,1.32;stroke-dashoffset:0;stroke-width:0.8;"/>
     </g>
     <g id="line2d_54">
      <g>
       <use style="stroke:#000000;stroke-width:0.6;" x="647.576723" xlink:href="#m28177ec1c7" y="640.8"/>
      </g>
     </g>
    </g>
    <g id="xtick_28">
     <g id="line2d_55">
      <path clip-path="url(#pe7079d166f)" d="M 692.931221 640.8 
L 692.931221 86.4 
" style="fill:none;stroke:#b0b0b0;stroke-dasharray:0.8,1.32;stroke-dashoffset:0;stroke-width:0.8;"/>
     </g>
     <g id="line2d_56">
      <g>
       <use style="stroke:#000000;stroke-width:0.6;" x="692.931221" xlink:href="#m28177ec1c7" y="640.8"/>
      </g>
     </g>
    </g>
    <g id="xtick_29">
     <g id="line2d_57">
      <path clip-path="url(#pe7079d166f)" d="M 715.60847 640.8 
L 715.60847 86.4 
" style="fill:none;stroke:#b0b0b0;stroke-dasharray:0.8,1.32;stroke-dashoffset:0;stroke-width:0.8;"/>
     </g>
     <g id="line2d_58">
      <g>
       <use style="stroke:#000000;stroke-width:0.6;" x="715.60847" xlink:href="#m28177ec1c7" y="640.8"/>
      </g>
     </g>
    </g>
    <g id="xtick_30">
     <g id="line2d_59">
      <path clip-path="url(#pe7079d166f)" d="M 738.285719 640.8 
L 738.285719 86.4 
" style="fill:none;stroke:#b0b0b0;stroke-dasharray:0.8,1.32;stroke-dashoffset:0;stroke-width:0.8;"/>
     </g>
     <g id="line2d_60">
      <g>
       <use style="stroke:#000000;stroke-width:0.6;" x="738.285719" xlink:href="#m28177ec1c7" y="640.8"/>
      </g>
     </g>
    </g>
    <g id="xtick_31">
     <g id="line2d_61">
      <path clip-path="url(#pe7079d166f)" d="M 783.640216 640.8 
L 783.640216 86.4 
" style="fill:none;stroke:#b0b0b0;stroke-dasharray:0.8,1.32;stroke-dashoffset:0;stroke-width:0.8;"/>
     </g>
     <g id="line2d_62">
      <g>
       <use style="stroke:#000000;stroke-width:0.6;" x="783.640216" xlink:href="#m28177ec1c7" y="640.8"/>
      </g>
     </g>
    </g>
    <g id="xtick_32">
     <g id="line2d_63">
      <path clip-path="url(#pe7079d166f)" d="M 806.317465 640.8 
L 806.317465 86.4 
" style="fill:none;stroke:#b0b0b0;stroke-dasharray:0.8,1.32;stroke-dashoffset:0;stroke-width:0.8;"/>
     </g>
     <g id="line2d_64">
      <g>
       <use style="stroke:#000000;stroke-width:0.6;" x="806.317465" xlink:href="#m28177ec1c7" y="640.8"/>
      </g>
     </g>
    </g>
    <g id="xtick_33">
     <g id="line2d_65">
      <path clip-path="url(#pe7079d166f)" d="M 828.994714 640.8 
L 828.994714 86.4 
" style="fill:none;stroke:#b0b0b0;stroke-dasharray:0.8,1.32;stroke-dashoffset:0;stroke-width:0.8;"/>
     </g>
     <g id="line2d_66">
      <g>
       <use style="stroke:#000000;stroke-width:0.6;" x="828.994714" xlink:href="#m28177ec1c7" y="640.8"/>
      </g>
     </g>
    </g>
    <g id="xtick_34">
     <g id="line2d_67">
      <path clip-path="url(#pe7079d166f)" d="M 874.349212 640.8 
L 874.349212 86.4 
" style="fill:none;stroke:#b0b0b0;stroke-dasharray:0.8,1.32;stroke-dashoffset:0;stroke-width:0.8;"/>
     </g>
     <g id="line2d_68">
      <g>
       <use style="stroke:#000000;stroke-width:0.6;" x="874.349212" xlink:href="#m28177ec1c7" y="640.8"/>
      </g>
     </g>
    </g>
    <g id="xtick_35">
     <g id="line2d_69">
      <path clip-path="url(#pe7079d166f)" d="M 897.026461 640.8 
L 897.026461 86.4 
" style="fill:none;stroke:#b0b0b0;stroke-dasharray:0.8,1.32;stroke-dashoffset:0;stroke-width:0.8;"/>
     </g>
     <g id="line2d_70">
      <g>
       <use style="stroke:#000000;stroke-width:0.6;" x="897.026461" xlink:href="#m28177ec1c7" y="640.8"/>
      </g>
     </g>
    </g>
    <g id="text_10">
     <!-- Время, с -->
     <g transform="translate(489.734063 670.59625)scale(0.12 -0.12)">
      <defs>
       <path d="M 1259 2228 
L 1259 519 
L 2272 519 
Q 2781 519 3026 730 
Q 3272 941 3272 1375 
Q 3272 1813 3026 2020 
Q 2781 2228 2272 2228 
L 1259 2228 
z
M 1259 4147 
L 1259 2741 
L 2194 2741 
Q 2656 2741 2882 2914 
Q 3109 3088 3109 3444 
Q 3109 3797 2882 3972 
Q 2656 4147 2194 4147 
L 1259 4147 
z
M 628 4666 
L 2241 4666 
Q 2963 4666 3353 4366 
Q 3744 4066 3744 3513 
Q 3744 3084 3544 2831 
Q 3344 2578 2956 2516 
Q 3422 2416 3680 2098 
Q 3938 1781 3938 1306 
Q 3938 681 3513 340 
Q 3088 0 2303 0 
L 628 0 
L 628 4666 
z
" id="DejaVuSans-412" transform="scale(0.015625)"/>
       <path d="M 1159 525 
L 1159 -1331 
L 581 -1331 
L 581 3500 
L 1159 3500 
L 1159 2969 
Q 1341 3281 1617 3432 
Q 1894 3584 2278 3584 
Q 2916 3584 3314 3078 
Q 3713 2572 3713 1747 
Q 3713 922 3314 415 
Q 2916 -91 2278 -91 
Q 1894 -91 1617 61 
Q 1341 213 1159 525 
z
M 3116 1747 
Q 3116 2381 2855 2742 
Q 2594 3103 2138 3103 
Q 1681 3103 1420 2742 
Q 1159 2381 1159 1747 
Q 1159 1113 1420 752 
Q 1681 391 2138 391 
Q 2594 391 2855 752 
Q 3116 1113 3116 1747 
z
" id="DejaVuSans-440" transform="scale(0.015625)"/>
       <path d="M 3597 1894 
L 3597 1613 
L 953 1613 
Q 991 1019 1311 708 
Q 1631 397 2203 397 
Q 2534 397 2845 478 
Q 3156 559 3463 722 
L 3463 178 
Q 3153 47 2828 -22 
Q 2503 -91 2169 -91 
Q 1331 -91 842 396 
Q 353 884 353 1716 
Q 353 2575 817 3079 
Q 1281 3584 2069 3584 
Q 2775 3584 3186 3129 
Q 3597 2675 3597 1894 
z
M 3022 2063 
Q 3016 2534 2758 2815 
Q 2500 3097 2075 3097 
Q 1594 3097 1305 2825 
Q 1016 2553 972 2059 
L 3022 2063 
z
" id="DejaVuSans-435" transform="scale(0.015625)"/>
       <path d="M 581 3500 
L 1422 3500 
L 2416 1156 
L 3413 3500 
L 4247 3500 
L 4247 0 
L 3669 0 
L 3669 2950 
L 2703 672 
L 2128 672 
L 1159 2950 
L 1159 0 
L 581 0 
L 581 3500 
z
" id="DejaVuSans-43c" transform="scale(0.015625)"/>
       <path d="M 1181 2491 
Q 1181 2231 1381 2084 
Q 1581 1938 1953 1938 
L 2728 1938 
L 2728 3041 
L 1953 3041 
Q 1581 3041 1381 2897 
Q 1181 2753 1181 2491 
z
M 363 0 
L 1431 1534 
Q 1069 1616 828 1830 
Q 588 2044 588 2491 
Q 588 2997 923 3248 
Q 1259 3500 1938 3500 
L 3306 3500 
L 3306 0 
L 2728 0 
L 2728 1478 
L 2013 1478 
L 981 0 
L 363 0 
z
" id="DejaVuSans-44f" transform="scale(0.015625)"/>
       <path d="M 750 794 
L 1409 794 
L 1409 256 
L 897 -744 
L 494 -744 
L 750 256 
L 750 794 
z
" id="DejaVuSans-2c" transform="scale(0.015625)"/>
       <path id="DejaVuSans-20" transform="scale(0.015625)"/>
       <path d="M 3122 3366 
L 3122 2828 
Q 2878 2963 2633 3030 
Q 2388 3097 2138 3097 
Q 1578 3097 1268 2742 
Q 959 2388 959 1747 
Q 959 1106 1268 751 
Q 1578 397 2138 397 
Q 2388 397 2633 464 
Q 2878 531 3122 666 
L 3122 134 
Q 2881 22 2623 -34 
Q 2366 -91 2075 -91 
Q 1284 -91 818 406 
Q 353 903 353 1747 
Q 353 2603 823 3093 
Q 1294 3584 2113 3584 
Q 2378 3584 2631 3529 
Q 2884 3475 3122 3366 
z
" id="DejaVuSans-441" transform="scale(0.015625)"/>
      </defs>
      <use xlink:href="#DejaVuSans-412"/>
      <use x="68.603516" xlink:href="#DejaVuSans-440"/>
      <use x="132.080078" xlink:href="#DejaVuSans-435"/>
      <use x="193.603516" xlink:href="#DejaVuSans-43c"/>
      <use x="269.042969" xlink:href="#DejaVuSans-44f"/>
      <use x="329.199219" xlink:href="#DejaVuSans-2c"/>
      <use x="360.986328" xlink:href="#DejaVuSans-20"/>
      <use x="392.773438" xlink:href="#DejaVuSans-441"/>
     </g>
    </g>
   </g>
   <g id="matplotlib.axis_2">
    <g id="ytick_1">
     <g id="line2d_71">
      <path clip-path="url(#pe7079d166f)" d="M 126 640.8 
L 907.2 640.8 
" style="fill:none;stroke:#b0b0b0;stroke-linecap:square;"/>
     </g>
     <g id="line2d_72">
      <defs>
       <path d="M 0 0 
L -3.5 0 
" id="m00bf4bb165" style="stroke:#000000;stroke-width:0.8;"/>
      </defs>
      <g>
       <use style="stroke:#000000;stroke-width:0.8;" x="126" xlink:href="#m00bf4bb165" y="640.8"/>
      </g>
     </g>
     <g id="text_11">
      <!-- 0.0 -->
      <g transform="translate(103.096875 644.599219)scale(0.1 -0.1)">
       <defs>
        <path d="M 684 794 
L 1344 794 
L 1344 0 
L 684 0 
L 684 794 
z
" id="DejaVuSans-2e" transform="scale(0.015625)"/>
       </defs>
       <use xlink:href="#DejaVuSans-30"/>
       <use x="63.623047" xlink:href="#DejaVuSans-2e"/>
       <use x="95.410156" xlink:href="#DejaVuSans-30"/>
      </g>
     </g>
    </g>
    <g id="ytick_2">
     <g id="line2d_73">
      <path clip-path="url(#pe7079d166f)" d="M 126 561.6 
L 907.2 561.6 
" style="fill:none;stroke:#b0b0b0;stroke-linecap:square;"/>
     </g>
     <g id="line2d_74">
      <g>
       <use style="stroke:#000000;stroke-width:0.8;" x="126" xlink:href="#m00bf4bb165" y="561.6"/>
      </g>
     </g>
     <g id="text_12">
      <!-- 0.5 -->
      <g transform="translate(103.096875 565.399219)scale(0.1 -0.1)">
       <defs>
        <path d="M 691 4666 
L 3169 4666 
L 3169 4134 
L 1269 4134 
L 1269 2991 
Q 1406 3038 1543 3061 
Q 1681 3084 1819 3084 
Q 2600 3084 3056 2656 
Q 3513 2228 3513 1497 
Q 3513 744 3044 326 
Q 2575 -91 1722 -91 
Q 1428 -91 1123 -41 
Q 819 9 494 109 
L 494 744 
Q 775 591 1075 516 
Q 1375 441 1709 441 
Q 2250 441 2565 725 
Q 2881 1009 2881 1497 
Q 2881 1984 2565 2268 
Q 2250 2553 1709 2553 
Q 1456 2553 1204 2497 
Q 953 2441 691 2322 
L 691 4666 
z
" id="DejaVuSans-35" transform="scale(0.015625)"/>
       </defs>
       <use xlink:href="#DejaVuSans-30"/>
       <use x="63.623047" xlink:href="#DejaVuSans-2e"/>
       <use x="95.410156" xlink:href="#DejaVuSans-35"/>
      </g>
     </g>
    </g>
    <g id="ytick_3">
     <g id="line2d_75">
      <path clip-path="url(#pe7079d166f)" d="M 126 482.4 
L 907.2 482.4 
" style="fill:none;stroke:#b0b0b0;stroke-linecap:square;"/>
     </g>
     <g id="line2d_76">
      <g>
       <use style="stroke:#000000;stroke-width:0.8;" x="126" xlink:href="#m00bf4bb165" y="482.4"/>
      </g>
     </g>
     <g id="text_13">
      <!-- 1.0 -->
      <g transform="translate(103.096875 486.199219)scale(0.1 -0.1)">
       <use xlink:href="#DejaVuSans-31"/>
       <use x="63.623047" xlink:href="#DejaVuSans-2e"/>
       <use x="95.410156" xlink:href="#DejaVuSans-30"/>
      </g>
     </g>
    </g>
    <g id="ytick_4">
     <g id="line2d_77">
      <path clip-path="url(#pe7079d166f)" d="M 126 403.2 
L 907.2 403.2 
" style="fill:none;stroke:#b0b0b0;stroke-linecap:square;"/>
     </g>
     <g id="line2d_78">
      <g>
       <use style="stroke:#000000;stroke-width:0.8;" x="126" xlink:href="#m00bf4bb165" y="403.2"/>
      </g>
     </g>
     <g id="text_14">
      <!-- 1.5 -->
      <g transform="translate(103.096875 406.999219)scale(0.1 -0.1)">
       <use xlink:href="#DejaVuSans-31"/>
       <use x="63.623047" xlink:href="#DejaVuSans-2e"/>
       <use x="95.410156" xlink:href="#DejaVuSans-35"/>
      </g>
     </g>
    </g>
    <g id="ytick_5">
     <g id="line2d_79">
      <path clip-path="url(#pe7079d166f)" d="M 126 324 
L 907.2 324 
" style="fill:none;stroke:#b0b0b0;stroke-linecap:square;"/>
     </g>
     <g id="line2d_80">
      <g>
       <use style="stroke:#000000;stroke-width:0.8;" x="126" xlink:href="#m00bf4bb165" y="324"/>
      </g>
     </g>
     <g id="text_15">
      <!-- 2.0 -->
      <g transform="translate(103.096875 327.799219)scale(0.1 -0.1)">
       <use xlink:href="#DejaVuSans-32"/>
       <use x="63.623047" xlink:href="#DejaVuSans-2e"/>
       <use x="95.410156" xlink:href="#DejaVuSans-30"/>
      </g>
     </g>
    </g>
    <g id="ytick_6">
     <g id="line2d_81">
      <path clip-path="url(#pe7079d166f)" d="M 126 244.8 
L 907.2 244.8 
" style="fill:none;stroke:#b0b0b0;stroke-linecap:square;"/>
     </g>
     <g id="line2d_82">
      <g>
       <use style="stroke:#000000;stroke-width:0.8;" x="126" xlink:href="#m00bf4bb165" y="244.8"/>
      </g>
     </g>
     <g id="text_16">
      <!-- 2.5 -->
      <g transform="translate(103.096875 248.599219)scale(0.1 -0.1)">
       <use xlink:href="#DejaVuSans-32"/>
       <use x="63.623047" xlink:href="#DejaVuSans-2e"/>
       <use x="95.410156" xlink:href="#DejaVuSans-35"/>
      </g>
     </g>
    </g>
    <g id="ytick_7">
     <g id="line2d_83">
      <path clip-path="url(#pe7079d166f)" d="M 126 165.6 
L 907.2 165.6 
" style="fill:none;stroke:#b0b0b0;stroke-linecap:square;"/>
     </g>
     <g id="line2d_84">
      <g>
       <use style="stroke:#000000;stroke-width:0.8;" x="126" xlink:href="#m00bf4bb165" y="165.6"/>
      </g>
     </g>
     <g id="text_17">
      <!-- 3.0 -->
      <g transform="translate(103.096875 169.399219)scale(0.1 -0.1)">
       <defs>
        <path d="M 2597 2516 
Q 3050 2419 3304 2112 
Q 3559 1806 3559 1356 
Q 3559 666 3084 287 
Q 2609 -91 1734 -91 
Q 1441 -91 1130 -33 
Q 819 25 488 141 
L 488 750 
Q 750 597 1062 519 
Q 1375 441 1716 441 
Q 2309 441 2620 675 
Q 2931 909 2931 1356 
Q 2931 1769 2642 2001 
Q 2353 2234 1838 2234 
L 1294 2234 
L 1294 2753 
L 1863 2753 
Q 2328 2753 2575 2939 
Q 2822 3125 2822 3475 
Q 2822 3834 2567 4026 
Q 2313 4219 1838 4219 
Q 1578 4219 1281 4162 
Q 984 4106 628 3988 
L 628 4550 
Q 988 4650 1302 4700 
Q 1616 4750 1894 4750 
Q 2613 4750 3031 4423 
Q 3450 4097 3450 3541 
Q 3450 3153 3228 2886 
Q 3006 2619 2597 2516 
z
" id="DejaVuSans-33" transform="scale(0.015625)"/>
       </defs>
       <use xlink:href="#DejaVuSans-33"/>
       <use x="63.623047" xlink:href="#DejaVuSans-2e"/>
       <use x="95.410156" xlink:href="#DejaVuSans-30"/>
      </g>
     </g>
    </g>
    <g id="ytick_8">
     <g id="line2d_85">
      <path clip-path="url(#pe7079d166f)" d="M 126 86.4 
L 907.2 86.4 
" style="fill:none;stroke:#b0b0b0;stroke-linecap:square;"/>
     </g>
     <g id="line2d_86">
      <g>
       <use style="stroke:#000000;stroke-width:0.8;" x="126" xlink:href="#m00bf4bb165" y="86.4"/>
      </g>
     </g>
     <g id="text_18">
      <!-- 3.5 -->
      <g transform="translate(103.096875 90.199219)scale(0.1 -0.1)">
       <use xlink:href="#DejaVuSans-33"/>
       <use x="63.623047" xlink:href="#DejaVuSans-2e"/>
       <use x="95.410156" xlink:href="#DejaVuSans-35"/>
      </g>
     </g>
    </g>
    <g id="ytick_9">
     <g id="line2d_87">
      <path clip-path="url(#pe7079d166f)" d="M 126 624.96 
L 907.2 624.96 
" style="fill:none;stroke:#b0b0b0;stroke-dasharray:0.8,1.32;stroke-dashoffset:0;stroke-width:0.8;"/>
     </g>
     <g id="line2d_88">
      <defs>
       <path d="M 0 0 
L -2 0 
" id="m233c27ac54" style="stroke:#000000;stroke-width:0.6;"/>
      </defs>
      <g>
       <use style="stroke:#000000;stroke-width:0.6;" x="126" xlink:href="#m233c27ac54" y="624.96"/>
      </g>
     </g>
    </g>
    <g id="ytick_10">
     <g id="line2d_89">
      <path clip-path="url(#pe7079d166f)" d="M 126 609.12 
L 907.2 609.12 
" style="fill:none;stroke:#b0b0b0;stroke-dasharray:0.8,1.32;stroke-dashoffset:0;stroke-width:0.8;"/>
     </g>
     <g id="line2d_90">
      <g>
       <use style="stroke:#000000;stroke-width:0.6;" x="126" xlink:href="#m233c27ac54" y="609.12"/>
      </g>
     </g>
    </g>
    <g id="ytick_11">
     <g id="line2d_91">
      <path clip-path="url(#pe7079d166f)" d="M 126 593.28 
L 907.2 593.28 
" style="fill:none;stroke:#b0b0b0;stroke-dasharray:0.8,1.32;stroke-dashoffset:0;stroke-width:0.8;"/>
     </g>
     <g id="line2d_92">
      <g>
       <use style="stroke:#000000;stroke-width:0.6;" x="126" xlink:href="#m233c27ac54" y="593.28"/>
      </g>
     </g>
    </g>
    <g id="ytick_12">
     <g id="line2d_93">
      <path clip-path="url(#pe7079d166f)" d="M 126 577.44 
L 907.2 577.44 
" style="fill:none;stroke:#b0b0b0;stroke-dasharray:0.8,1.32;stroke-dashoffset:0;stroke-width:0.8;"/>
     </g>
     <g id="line2d_94">
      <g>
       <use style="stroke:#000000;stroke-width:0.6;" x="126" xlink:href="#m233c27ac54" y="577.44"/>
      </g>
     </g>
    </g>
    <g id="ytick_13">
     <g id="line2d_95">
      <path clip-path="url(#pe7079d166f)" d="M 126 545.76 
L 907.2 545.76 
" style="fill:none;stroke:#b0b0b0;stroke-dasharray:0.8,1.32;stroke-dashoffset:0;stroke-width:0.8;"/>
     </g>
     <g id="line2d_96">
      <g>
       <use style="stroke:#000000;stroke-width:0.6;" x="126" xlink:href="#m233c27ac54" y="545.76"/>
      </g>
     </g>
    </g>
    <g id="ytick_14">
     <g id="line2d_97">
      <path clip-path="url(#pe7079d166f)" d="M 126 529.92 
L 907.2 529.92 
" style="fill:none;stroke:#b0b0b0;stroke-dasharray:0.8,1.32;stroke-dashoffset:0;stroke-width:0.8;"/>
     </g>
     <g id="line2d_98">
      <g>
       <use style="stroke:#000000;stroke-width:0.6;" x="126" xlink:href="#m233c27ac54" y="529.92"/>
      </g>
     </g>
    </g>
    <g id="ytick_15">
     <g id="line2d_99">
      <path clip-path="url(#pe7079d166f)" d="M 126 514.08 
L 907.2 514.08 
" style="fill:none;stroke:#b0b0b0;stroke-dasharray:0.8,1.32;stroke-dashoffset:0;stroke-width:0.8;"/>
     </g>
     <g id="line2d_100">
      <g>
       <use style="stroke:#000000;stroke-width:0.6;" x="126" xlink:href="#m233c27ac54" y="514.08"/>
      </g>
     </g>
    </g>
    <g id="ytick_16">
     <g id="line2d_101">
      <path clip-path="url(#pe7079d166f)" d="M 126 498.24 
L 907.2 498.24 
" style="fill:none;stroke:#b0b0b0;stroke-dasharray:0.8,1.32;stroke-dashoffset:0;stroke-width:0.8;"/>
     </g>
     <g id="line2d_102">
      <g>
       <use style="stroke:#000000;stroke-width:0.6;" x="126" xlink:href="#m233c27ac54" y="498.24"/>
      </g>
     </g>
    </g>
    <g id="ytick_17">
     <g id="line2d_103">
      <path clip-path="url(#pe7079d166f)" d="M 126 466.56 
L 907.2 466.56 
" style="fill:none;stroke:#b0b0b0;stroke-dasharray:0.8,1.32;stroke-dashoffset:0;stroke-width:0.8;"/>
     </g>
     <g id="line2d_104">
      <g>
       <use style="stroke:#000000;stroke-width:0.6;" x="126" xlink:href="#m233c27ac54" y="466.56"/>
      </g>
     </g>
    </g>
    <g id="ytick_18">
     <g id="line2d_105">
      <path clip-path="url(#pe7079d166f)" d="M 126 450.72 
L 907.2 450.72 
" style="fill:none;stroke:#b0b0b0;stroke-dasharray:0.8,1.32;stroke-dashoffset:0;stroke-width:0.8;"/>
     </g>
     <g id="line2d_106">
      <g>
       <use style="stroke:#000000;stroke-width:0.6;" x="126" xlink:href="#m233c27ac54" y="450.72"/>
      </g>
     </g>
    </g>
    <g id="ytick_19">
     <g id="line2d_107">
      <path clip-path="url(#pe7079d166f)" d="M 126 434.88 
L 907.2 434.88 
" style="fill:none;stroke:#b0b0b0;stroke-dasharray:0.8,1.32;stroke-dashoffset:0;stroke-width:0.8;"/>
     </g>
     <g id="line2d_108">
      <g>
       <use style="stroke:#000000;stroke-width:0.6;" x="126" xlink:href="#m233c27ac54" y="434.88"/>
      </g>
     </g>
    </g>
    <g id="ytick_20">
     <g id="line2d_109">
      <path clip-path="url(#pe7079d166f)" d="M 126 419.04 
L 907.2 419.04 
" style="fill:none;stroke:#b0b0b0;stroke-dasharray:0.8,1.32;stroke-dashoffset:0;stroke-width:0.8;"/>
     </g>
     <g id="line2d_110">
      <g>
       <use style="stroke:#000000;stroke-width:0.6;" x="126" xlink:href="#m233c27ac54" y="419.04"/>
      </g>
     </g>
    </g>
    <g id="ytick_21">
     <g id="line2d_111">
      <path clip-path="url(#pe7079d166f)" d="M 126 387.36 
L 907.2 387.36 
" style="fill:none;stroke:#b0b0b0;stroke-dasharray:0.8,1.32;stroke-dashoffset:0;stroke-width:0.8;"/>
     </g>
     <g id="line2d_112">
      <g>
       <use style="stroke:#000000;stroke-width:0.6;" x="126" xlink:href="#m233c27ac54" y="387.36"/>
      </g>
     </g>
    </g>
    <g id="ytick_22">
     <g id="line2d_113">
      <path clip-path="url(#pe7079d166f)" d="M 126 371.52 
L 907.2 371.52 
" style="fill:none;stroke:#b0b0b0;stroke-dasharray:0.8,1.32;stroke-dashoffset:0;stroke-width:0.8;"/>
     </g>
     <g id="line2d_114">
      <g>
       <use style="stroke:#000000;stroke-width:0.6;" x="126" xlink:href="#m233c27ac54" y="371.52"/>
      </g>
     </g>
    </g>
    <g id="ytick_23">
     <g id="line2d_115">
      <path clip-path="url(#pe7079d166f)" d="M 126 355.68 
L 907.2 355.68 
" style="fill:none;stroke:#b0b0b0;stroke-dasharray:0.8,1.32;stroke-dashoffset:0;stroke-width:0.8;"/>
     </g>
     <g id="line2d_116">
      <g>
       <use style="stroke:#000000;stroke-width:0.6;" x="126" xlink:href="#m233c27ac54" y="355.68"/>
      </g>
     </g>
    </g>
    <g id="ytick_24">
     <g id="line2d_117">
      <path clip-path="url(#pe7079d166f)" d="M 126 339.84 
L 907.2 339.84 
" style="fill:none;stroke:#b0b0b0;stroke-dasharray:0.8,1.32;stroke-dashoffset:0;stroke-width:0.8;"/>
     </g>
     <g id="line2d_118">
      <g>
       <use style="stroke:#000000;stroke-width:0.6;" x="126" xlink:href="#m233c27ac54" y="339.84"/>
      </g>
     </g>
    </g>
    <g id="ytick_25">
     <g id="line2d_119">
      <path clip-path="url(#pe7079d166f)" d="M 126 308.16 
L 907.2 308.16 
" style="fill:none;stroke:#b0b0b0;stroke-dasharray:0.8,1.32;stroke-dashoffset:0;stroke-width:0.8;"/>
     </g>
     <g id="line2d_120">
      <g>
       <use style="stroke:#000000;stroke-width:0.6;" x="126" xlink:href="#m233c27ac54" y="308.16"/>
      </g>
     </g>
    </g>
    <g id="ytick_26">
     <g id="line2d_121">
      <path clip-path="url(#pe7079d166f)" d="M 126 292.32 
L 907.2 292.32 
" style="fill:none;stroke:#b0b0b0;stroke-dasharray:0.8,1.32;stroke-dashoffset:0;stroke-width:0.8;"/>
     </g>
     <g id="line2d_122">
      <g>
       <use style="stroke:#000000;stroke-width:0.6;" x="126" xlink:href="#m233c27ac54" y="292.32"/>
      </g>
     </g>
    </g>
    <g id="ytick_27">
     <g id="line2d_123">
      <path clip-path="url(#pe7079d166f)" d="M 126 276.48 
L 907.2 276.48 
" style="fill:none;stroke:#b0b0b0;stroke-dasharray:0.8,1.32;stroke-dashoffset:0;stroke-width:0.8;"/>
     </g>
     <g id="line2d_124">
      <g>
       <use style="stroke:#000000;stroke-width:0.6;" x="126" xlink:href="#m233c27ac54" y="276.48"/>
      </g>
     </g>
    </g>
    <g id="ytick_28">
     <g id="line2d_125">
      <path clip-path="url(#pe7079d166f)" d="M 126 260.64 
L 907.2 260.64 
" style="fill:none;stroke:#b0b0b0;stroke-dasharray:0.8,1.32;stroke-dashoffset:0;stroke-width:0.8;"/>
     </g>
     <g id="line2d_126">
      <g>
       <use style="stroke:#000000;stroke-width:0.6;" x="126" xlink:href="#m233c27ac54" y="260.64"/>
      </g>
     </g>
    </g>
    <g id="ytick_29">
     <g id="line2d_127">
      <path clip-path="url(#pe7079d166f)" d="M 126 228.96 
L 907.2 228.96 
" style="fill:none;stroke:#b0b0b0;stroke-dasharray:0.8,1.32;stroke-dashoffset:0;stroke-width:0.8;"/>
     </g>
     <g id="line2d_128">
      <g>
       <use style="stroke:#000000;stroke-width:0.6;" x="126" xlink:href="#m233c27ac54" y="228.96"/>
      </g>
     </g>
    </g>
    <g id="ytick_30">
     <g id="line2d_129">
      <path clip-path="url(#pe7079d166f)" d="M 126 213.12 
L 907.2 213.12 
" style="fill:none;stroke:#b0b0b0;stroke-dasharray:0.8,1.32;stroke-dashoffset:0;stroke-width:0.8;"/>
     </g>
     <g id="line2d_130">
      <g>
       <use style="stroke:#000000;stroke-width:0.6;" x="126" xlink:href="#m233c27ac54" y="213.12"/>
      </g>
     </g>
    </g>
    <g id="ytick_31">
     <g id="line2d_131">
      <path clip-path="url(#pe7079d166f)" d="M 126 197.28 
L 907.2 197.28 
" style="fill:none;stroke:#b0b0b0;stroke-dasharray:0.8,1.32;stroke-dashoffset:0;stroke-width:0.8;"/>
     </g>
     <g id="line2d_132">
      <g>
       <use style="stroke:#000000;stroke-width:0.6;" x="126" xlink:href="#m233c27ac54" y="197.28"/>
      </g>
     </g>
    </g>
    <g id="ytick_32">
     <g id="line2d_133">
      <path clip-path="url(#pe7079d166f)" d="M 126 181.44 
L 907.2 181.44 
" style="fill:none;stroke:#b0b0b0;stroke-dasharray:0.8,1.32;stroke-dashoffset:0;stroke-width:0.8;"/>
     </g>
     <g id="line2d_134">
      <g>
       <use style="stroke:#000000;stroke-width:0.6;" x="126" xlink:href="#m233c27ac54" y="181.44"/>
      </g>
     </g>
    </g>
    <g id="ytick_33">
     <g id="line2d_135">
      <path clip-path="url(#pe7079d166f)" d="M 126 149.76 
L 907.2 149.76 
" style="fill:none;stroke:#b0b0b0;stroke-dasharray:0.8,1.32;stroke-dashoffset:0;stroke-width:0.8;"/>
     </g>
     <g id="line2d_136">
      <g>
       <use style="stroke:#000000;stroke-width:0.6;" x="126" xlink:href="#m233c27ac54" y="149.76"/>
      </g>
     </g>
    </g>
    <g id="ytick_34">
     <g id="line2d_137">
      <path clip-path="url(#pe7079d166f)" d="M 126 133.92 
L 907.2 133.92 
" style="fill:none;stroke:#b0b0b0;stroke-dasharray:0.8,1.32;stroke-dashoffset:0;stroke-width:0.8;"/>
     </g>
     <g id="line2d_138">
      <g>
       <use style="stroke:#000000;stroke-width:0.6;" x="126" xlink:href="#m233c27ac54" y="133.92"/>
      </g>
     </g>
    </g>
    <g id="ytick_35">
     <g id="line2d_139">
      <path clip-path="url(#pe7079d166f)" d="M 126 118.08 
L 907.2 118.08 
" style="fill:none;stroke:#b0b0b0;stroke-dasharray:0.8,1.32;stroke-dashoffset:0;stroke-width:0.8;"/>
     </g>
     <g id="line2d_140">
      <g>
       <use style="stroke:#000000;stroke-width:0.6;" x="126" xlink:href="#m233c27ac54" y="118.08"/>
      </g>
     </g>
    </g>
    <g id="ytick_36">
     <g id="line2d_141">
      <path clip-path="url(#pe7079d166f)" d="M 126 102.24 
L 907.2 102.24 
" style="fill:none;stroke:#b0b0b0;stroke-dasharray:0.8,1.32;stroke-dashoffset:0;stroke-width:0.8;"/>
     </g>
     <g id="line2d_142">
      <g>
       <use style="stroke:#000000;stroke-width:0.6;" x="126" xlink:href="#m233c27ac54" y="102.24"/>
      </g>
     </g>
    </g>
    <g id="text_19">
     <!-- Напряжение, В -->
     <g transform="translate(96.60125 411.67125)rotate(-90)scale(0.12 -0.12)">
      <defs>
       <path d="M 628 4666 
L 1259 4666 
L 1259 2753 
L 3553 2753 
L 3553 4666 
L 4184 4666 
L 4184 0 
L 3553 0 
L 3553 2222 
L 1259 2222 
L 1259 0 
L 628 0 
L 628 4666 
z
" id="DejaVuSans-41d" transform="scale(0.015625)"/>
       <path d="M 2194 1759 
Q 1497 1759 1228 1600 
Q 959 1441 959 1056 
Q 959 750 1161 570 
Q 1363 391 1709 391 
Q 2188 391 2477 730 
Q 2766 1069 2766 1631 
L 2766 1759 
L 2194 1759 
z
M 3341 1997 
L 3341 0 
L 2766 0 
L 2766 531 
Q 2569 213 2275 61 
Q 1981 -91 1556 -91 
Q 1019 -91 701 211 
Q 384 513 384 1019 
Q 384 1609 779 1909 
Q 1175 2209 1959 2209 
L 2766 2209 
L 2766 2266 
Q 2766 2663 2505 2880 
Q 2244 3097 1772 3097 
Q 1472 3097 1187 3025 
Q 903 2953 641 2809 
L 641 3341 
Q 956 3463 1253 3523 
Q 1550 3584 1831 3584 
Q 2591 3584 2966 3190 
Q 3341 2797 3341 1997 
z
" id="DejaVuSans-430" transform="scale(0.015625)"/>
       <path d="M 3603 3500 
L 3603 0 
L 3025 0 
L 3025 3041 
L 1159 3041 
L 1159 0 
L 581 0 
L 581 3500 
L 3603 3500 
z
" id="DejaVuSans-43f" transform="scale(0.015625)"/>
       <path d="M 2597 3500 
L 3169 3500 
L 3169 1856 
L 4697 3500 
L 5366 3500 
L 4109 2153 
L 5547 0 
L 4931 0 
L 3753 1769 
L 3169 1141 
L 3169 0 
L 2597 0 
L 2597 1141 
L 2013 1769 
L 834 0 
L 219 0 
L 1656 2153 
L 400 3500 
L 1069 3500 
L 2597 1856 
L 2597 3500 
z
" id="DejaVuSans-436" transform="scale(0.015625)"/>
       <path d="M 581 3500 
L 1159 3500 
L 1159 2072 
L 3025 2072 
L 3025 3500 
L 3603 3500 
L 3603 0 
L 3025 0 
L 3025 1613 
L 1159 1613 
L 1159 0 
L 581 0 
L 581 3500 
z
" id="DejaVuSans-43d" transform="scale(0.015625)"/>
       <path d="M 3578 3500 
L 3578 0 
L 3006 0 
L 3006 2809 
L 1319 0 
L 581 0 
L 581 3500 
L 1153 3500 
L 1153 697 
L 2838 3500 
L 3578 3500 
z
" id="DejaVuSans-438" transform="scale(0.015625)"/>
      </defs>
      <use xlink:href="#DejaVuSans-41d"/>
      <use x="75.195312" xlink:href="#DejaVuSans-430"/>
      <use x="136.474609" xlink:href="#DejaVuSans-43f"/>
      <use x="201.855469" xlink:href="#DejaVuSans-440"/>
      <use x="265.332031" xlink:href="#DejaVuSans-44f"/>
      <use x="325.488281" xlink:href="#DejaVuSans-436"/>
      <use x="415.576172" xlink:href="#DejaVuSans-435"/>
      <use x="477.099609" xlink:href="#DejaVuSans-43d"/>
      <use x="542.480469" xlink:href="#DejaVuSans-438"/>
      <use x="607.470703" xlink:href="#DejaVuSans-435"/>
      <use x="668.994141" xlink:href="#DejaVuSans-2c"/>
      <use x="700.78125" xlink:href="#DejaVuSans-20"/>
      <use x="732.568359" xlink:href="#DejaVuSans-412"/>
     </g>
    </g>
   </g>
   <g id="line2d_143">
    <path clip-path="url(#pe7079d166f)" d="M 126 640.8 
L 153.957055 640.8 
L 153.957055 638.758125 
L 155.554601 638.758125 
L 155.554601 634.674375 
L 157.152147 634.674375 
L 157.152147 632.6325 
L 158.749693 632.6325 
L 158.749693 626.506875 
L 161.944785 626.506875 
L 161.944785 618.339375 
L 163.542331 618.339375 
L 163.542331 616.2975 
L 165.139877 616.2975 
L 165.139877 612.21375 
L 166.737423 612.21375 
L 166.737423 610.171875 
L 168.334969 610.171875 
L 168.334969 606.088125 
L 169.932515 606.088125 
L 169.932515 602.004375 
L 171.530061 602.004375 
L 171.530061 599.9625 
L 173.127607 599.9625 
L 173.127607 593.836875 
L 174.725153 593.836875 
L 174.725153 591.795 
L 176.322699 591.795 
L 176.322699 589.753125 
L 177.920245 589.753125 
L 177.920245 585.669375 
L 179.517791 585.669375 
L 179.517791 583.6275 
L 181.115337 583.6275 
L 181.115337 577.501875 
L 185.907975 577.501875 
L 185.907975 569.334375 
L 189.103067 569.334375 
L 189.103067 563.20875 
L 190.700613 563.20875 
L 190.700613 561.166875 
L 192.29816 561.166875 
L 192.29816 557.083125 
L 193.895706 557.083125 
L 193.895706 552.999375 
L 195.493252 552.999375 
L 195.493252 550.9575 
L 197.090798 550.9575 
L 197.090798 546.87375 
L 198.688344 546.87375 
L 198.688344 544.831875 
L 200.28589 544.831875 
L 200.28589 542.79 
L 201.883436 542.79 
L 201.883436 540.748125 
L 203.480982 540.748125 
L 203.480982 536.664375 
L 205.078528 536.664375 
L 205.078528 534.6225 
L 206.676074 534.6225 
L 206.676074 530.53875 
L 208.27362 530.53875 
L 208.27362 528.496875 
L 209.871166 528.496875 
L 209.871166 526.455 
L 211.468712 526.455 
L 211.468712 524.413125 
L 213.066258 524.413125 
L 213.066258 520.329375 
L 214.663804 520.329375 
L 214.663804 518.2875 
L 216.26135 518.2875 
L 216.26135 514.20375 
L 217.858896 514.20375 
L 217.858896 512.161875 
L 222.651534 512.161875 
L 222.651534 503.994375 
L 225.846626 503.994375 
L 225.846626 497.86875 
L 227.444172 497.86875 
L 227.444172 495.826875 
L 229.041718 495.826875 
L 229.041718 493.785 
L 230.639264 493.785 
L 230.639264 491.743125 
L 232.23681 491.743125 
L 232.23681 485.6175 
L 235.431902 485.6175 
L 235.431902 481.53375 
L 237.029448 481.53375 
L 237.029448 479.491875 
L 240.22454 479.491875 
L 240.22454 475.408125 
L 241.822086 475.408125 
L 241.822086 471.324375 
L 243.419632 471.324375 
L 243.419632 469.2825 
L 245.017178 469.2825 
L 245.017178 465.19875 
L 246.614724 465.19875 
L 246.614724 463.156875 
L 248.21227 463.156875 
L 248.21227 461.115 
L 249.809816 461.115 
L 249.809816 459.073125 
L 251.407362 459.073125 
L 251.407362 454.989375 
L 253.004908 454.989375 
L 253.004908 452.9475 
L 256.2 452.9475 
L 256.2 448.86375 
L 257.797546 448.86375 
L 257.797546 446.821875 
L 259.395092 446.821875 
L 259.395092 444.78 
L 262.590184 444.78 
L 262.590184 440.69625 
L 264.18773 440.69625 
L 264.18773 438.654375 
L 265.785276 438.654375 
L 265.785276 436.6125 
L 267.382822 436.6125 
L 267.382822 432.52875 
L 268.980368 432.52875 
L 268.980368 430.486875 
L 272.17546 430.486875 
L 272.17546 428.445 
L 273.773006 428.445 
L 273.773006 426.403125 
L 275.370552 426.403125 
L 275.370552 422.319375 
L 276.968098 422.319375 
L 276.968098 420.2775 
L 278.565644 420.2775 
L 278.565644 416.19375 
L 280.16319 416.19375 
L 280.16319 414.151875 
L 281.760736 414.151875 
L 281.760736 412.11 
L 284.955828 412.11 
L 284.955828 410.068125 
L 286.553374 410.068125 
L 286.553374 405.984375 
L 289.748466 405.984375 
L 289.748466 403.9425 
L 291.346012 403.9425 
L 291.346012 399.85875 
L 292.943558 399.85875 
L 292.943558 397.816875 
L 296.13865 397.816875 
L 296.13865 395.775 
L 299.333742 395.775 
L 299.333742 393.733125 
L 300.931288 393.733125 
L 300.931288 389.649375 
L 304.12638 389.649375 
L 304.12638 387.6075 
L 307.321472 387.6075 
L 307.321472 383.52375 
L 308.919018 383.52375 
L 308.919018 381.481875 
L 313.711656 381.481875 
L 313.711656 379.44 
L 315.309202 379.44 
L 315.309202 377.398125 
L 316.906748 377.398125 
L 316.906748 373.314375 
L 318.504294 373.314375 
L 318.504294 371.2725 
L 320.10184 371.2725 
L 320.10184 367.18875 
L 321.699387 367.18875 
L 321.699387 365.146875 
L 324.894479 365.146875 
L 324.894479 361.063125 
L 326.492025 361.063125 
L 326.492025 356.979375 
L 329.687117 356.979375 
L 329.687117 354.9375 
L 331.284663 354.9375 
L 331.284663 350.85375 
L 332.882209 350.85375 
L 332.882209 348.811875 
L 337.674847 348.811875 
L 337.674847 344.728125 
L 339.272393 344.728125 
L 339.272393 340.644375 
L 344.065031 340.644375 
L 344.065031 336.560625 
L 345.662577 336.560625 
L 345.662577 334.51875 
L 347.260123 334.51875 
L 347.260123 332.476875 
L 348.857669 332.476875 
L 348.857669 330.435 
L 352.052761 330.435 
L 352.052761 328.393125 
L 353.650307 328.393125 
L 353.650307 324.309375 
L 355.247853 324.309375 
L 355.247853 322.2675 
L 360.040491 322.2675 
L 360.040491 318.18375 
L 361.638037 318.18375 
L 361.638037 316.141875 
L 368.028221 316.141875 
L 368.028221 312.058125 
L 369.625767 312.058125 
L 369.625767 307.974375 
L 374.418405 307.974375 
L 374.418405 303.890625 
L 376.015951 303.890625 
L 376.015951 301.84875 
L 377.613497 301.84875 
L 377.613497 299.806875 
L 382.406135 299.806875 
L 382.406135 295.723125 
L 385.601227 295.723125 
L 385.601227 291.639375 
L 387.198773 291.639375 
L 387.198773 289.5975 
L 391.991411 289.5975 
L 391.991411 285.51375 
L 393.588957 285.51375 
L 393.588957 283.471875 
L 396.784049 283.471875 
L 396.784049 281.43 
L 399.979141 281.43 
L 399.979141 279.388125 
L 403.174233 279.388125 
L 403.174233 275.304375 
L 407.966871 275.304375 
L 407.966871 273.2625 
L 409.564417 273.2625 
L 409.564417 271.220625 
L 411.161963 271.220625 
L 411.161963 269.17875 
L 412.759509 269.17875 
L 412.759509 267.136875 
L 417.552147 267.136875 
L 417.552147 265.095 
L 420.747239 265.095 
L 420.747239 263.053125 
L 425.539877 263.053125 
L 425.539877 258.969375 
L 428.734969 258.969375 
L 428.734969 256.9275 
L 435.125153 256.9275 
L 435.125153 254.885625 
L 436.722699 254.885625 
L 436.722699 252.84375 
L 441.515337 252.84375 
L 441.515337 250.801875 
L 443.112883 250.801875 
L 443.112883 248.76 
L 447.905521 248.76 
L 447.905521 246.718125 
L 451.100613 246.718125 
L 451.100613 242.634375 
L 457.490798 242.634375 
L 457.490798 240.5925 
L 460.68589 240.5925 
L 460.68589 236.50875 
L 463.880982 236.50875 
L 463.880982 234.466875 
L 475.063804 234.466875 
L 475.063804 232.425 
L 478.258896 232.425 
L 478.258896 230.383125 
L 484.64908 230.383125 
L 484.64908 226.299375 
L 491.039264 226.299375 
L 491.039264 224.2575 
L 513.404908 224.2575 
L 513.404908 220.17375 
L 548.55092 220.17375 
L 548.55092 218.131875 
L 550.148466 218.131875 
L 550.148466 220.17375 
L 551.746012 220.17375 
L 551.746012 224.2575 
L 554.941104 224.2575 
L 554.941104 226.299375 
L 556.53865 226.299375 
L 556.53865 230.383125 
L 558.136196 230.383125 
L 558.136196 232.425 
L 561.331288 232.425 
L 561.331288 234.466875 
L 566.123926 234.466875 
L 566.123926 236.50875 
L 569.319018 236.50875 
L 569.319018 240.5925 
L 572.51411 240.5925 
L 572.51411 242.634375 
L 578.904294 242.634375 
L 578.904294 246.718125 
L 585.294479 246.718125 
L 585.294479 248.76 
L 607.660123 248.76 
L 607.660123 252.84375 
L 609.257669 252.84375 
L 609.257669 254.885625 
L 610.855215 254.885625 
L 610.855215 256.9275 
L 615.647853 256.9275 
L 615.647853 258.969375 
L 618.842945 258.969375 
L 618.842945 263.053125 
L 623.635583 263.053125 
L 623.635583 265.095 
L 631.623313 265.095 
L 631.623313 267.136875 
L 634.818405 267.136875 
L 634.818405 269.17875 
L 639.611043 269.17875 
L 639.611043 271.220625 
L 641.208589 271.220625 
L 641.208589 273.2625 
L 646.001227 273.2625 
L 646.001227 275.304375 
L 657.184049 275.304375 
L 657.184049 279.388125 
L 665.171779 279.388125 
L 665.171779 281.43 
L 695.525153 281.43 
L 695.525153 283.471875 
L 698.720245 283.471875 
L 698.720245 285.51375 
L 705.110429 285.51375 
L 705.110429 289.5975 
L 722.683436 289.5975 
L 722.683436 291.639375 
L 732.268712 291.639375 
L 732.268712 295.723125 
L 746.646626 295.723125 
L 746.646626 297.765 
L 772.207362 297.765 
L 772.207362 299.806875 
L 802.560736 299.806875 
L 802.560736 301.84875 
L 900.011043 301.84875 
L 900.011043 303.890625 
L 906.401227 303.890625 
L 906.401227 305.9325 
L 907.2 305.9325 
L 907.2 305.9325 
" style="fill:none;stroke:#00008b;stroke-linecap:square;stroke-width:1.5;"/>
    <defs>
     <path d="M 0 2.5 
C 0.663008 2.5 1.29895 2.236584 1.767767 1.767767 
C 2.236584 1.29895 2.5 0.663008 2.5 0 
C 2.5 -0.663008 2.236584 -1.29895 1.767767 -1.767767 
C 1.29895 -2.236584 0.663008 -2.5 0 -2.5 
C -0.663008 -2.5 -1.29895 -2.236584 -1.767767 -1.767767 
C -2.236584 -1.29895 -2.5 -0.663008 -2.5 0 
C -2.5 0.663008 -2.236584 1.29895 -1.767767 1.767767 
C -1.29895 2.236584 -0.663008 2.5 0 2.5 
z
" id="m10c29358f7" style="stroke:#00008b;"/>
    </defs>
    <g clip-path="url(#pe7079d166f)">
     <use style="fill:#00008b;stroke:#00008b;" x="126" xlink:href="#m10c29358f7" y="640.8"/>
     <use style="fill:#00008b;stroke:#00008b;" x="173.92638" xlink:href="#m10c29358f7" y="593.836875"/>
     <use style="fill:#00008b;stroke:#00008b;" x="221.852761" xlink:href="#m10c29358f7" y="512.161875"/>
     <use style="fill:#00008b;stroke:#00008b;" x="269.779141" xlink:href="#m10c29358f7" y="430.486875"/>
     <use style="fill:#00008b;stroke:#00008b;" x="317.705521" xlink:href="#m10c29358f7" y="373.314375"/>
     <use style="fill:#00008b;stroke:#00008b;" x="365.631902" xlink:href="#m10c29358f7" y="316.141875"/>
     <use style="fill:#00008b;stroke:#00008b;" x="413.558282" xlink:href="#m10c29358f7" y="267.136875"/>
     <use style="fill:#00008b;stroke:#00008b;" x="461.484663" xlink:href="#m10c29358f7" y="236.50875"/>
     <use style="fill:#00008b;stroke:#00008b;" x="509.411043" xlink:href="#m10c29358f7" y="224.2575"/>
     <use style="fill:#00008b;stroke:#00008b;" x="557.337423" xlink:href="#m10c29358f7" y="230.383125"/>
     <use style="fill:#00008b;stroke:#00008b;" x="605.263804" xlink:href="#m10c29358f7" y="248.76"/>
     <use style="fill:#00008b;stroke:#00008b;" x="653.190184" xlink:href="#m10c29358f7" y="275.304375"/>
     <use style="fill:#00008b;stroke:#00008b;" x="701.116564" xlink:href="#m10c29358f7" y="285.51375"/>
     <use style="fill:#00008b;stroke:#00008b;" x="749.042945" xlink:href="#m10c29358f7" y="297.765"/>
     <use style="fill:#00008b;stroke:#00008b;" x="796.969325" xlink:href="#m10c29358f7" y="299.806875"/>
     <use style="fill:#00008b;stroke:#00008b;" x="844.895706" xlink:href="#m10c29358f7" y="301.84875"/>
     <use style="fill:#00008b;stroke:#00008b;" x="892.822086" xlink:href="#m10c29358f7" y="301.84875"/>
    </g>
   </g>
   <g id="patch_3">
    <path d="M 126 640.8 
L 126 86.4 
" style="fill:none;stroke:#000000;stroke-linecap:square;stroke-linejoin:miter;stroke-width:0.8;"/>
   </g>
   <g id="patch_4">
    <path d="M 907.2 640.8 
L 907.2 86.4 
" style="fill:none;stroke:#000000;stroke-linecap:square;stroke-linejoin:miter;stroke-width:0.8;"/>
   </g>
   <g id="patch_5">
    <path d="M 126 640.8 
L 907.2 640.8 
" style="fill:none;stroke:#000000;stroke-linecap:square;stroke-linejoin:miter;stroke-width:0.8;"/>
   </g>
   <g id="patch_6">
    <path d="M 126 86.4 
L 907.2 86.4 
" style="fill:none;stroke:#000000;stroke-linecap:square;stroke-linejoin:miter;stroke-width:0.8;"/>
   </g>
   <g id="text_20">
    <!-- Процесс заряда и разряда конденсатора в RC-цепочке -->
    <g transform="translate(342.263438 80.4)scale(0.12 -0.12)">
     <defs>
      <path d="M 4184 4666 
L 4184 0 
L 3553 0 
L 3553 4134 
L 1259 4134 
L 1259 0 
L 628 0 
L 628 4666 
L 4184 4666 
z
" id="DejaVuSans-41f" transform="scale(0.015625)"/>
      <path d="M 1959 3097 
Q 1497 3097 1228 2736 
Q 959 2375 959 1747 
Q 959 1119 1226 758 
Q 1494 397 1959 397 
Q 2419 397 2687 759 
Q 2956 1122 2956 1747 
Q 2956 2369 2687 2733 
Q 2419 3097 1959 3097 
z
M 1959 3584 
Q 2709 3584 3137 3096 
Q 3566 2609 3566 1747 
Q 3566 888 3137 398 
Q 2709 -91 1959 -91 
Q 1206 -91 779 398 
Q 353 888 353 1747 
Q 353 2609 779 3096 
Q 1206 3584 1959 3584 
z
" id="DejaVuSans-43e" transform="scale(0.015625)"/>
      <path d="M 3603 0 
L 581 0 
L 581 3500 
L 1159 3500 
L 1159 459 
L 3025 459 
L 3025 3500 
L 3603 3500 
L 3603 459 
L 4063 459 
L 4063 -884 
L 3603 -884 
L 3603 0 
z
" id="DejaVuSans-446" transform="scale(0.015625)"/>
      <path d="M 2206 1888 
Q 2594 1813 2809 1584 
Q 3025 1356 3025 1019 
Q 3025 478 2622 193 
Q 2219 -91 1475 -91 
Q 1225 -91 961 -47 
Q 697 -3 416 84 
L 416 619 
Q 638 503 903 445 
Q 1169 388 1459 388 
Q 1931 388 2195 563 
Q 2459 738 2459 1019 
Q 2459 1294 2225 1461 
Q 1991 1628 1563 1628 
L 1100 1628 
L 1100 2103 
L 1584 2103 
Q 1947 2103 2158 2242 
Q 2369 2381 2369 2600 
Q 2369 2800 2151 2944 
Q 1934 3088 1563 3088 
Q 1341 3088 1089 3047 
Q 838 3006 534 2916 
L 534 3438 
Q 841 3513 1106 3550 
Q 1372 3588 1609 3588 
Q 2222 3588 2576 3342 
Q 2931 3097 2931 2656 
Q 2931 2366 2743 2164 
Q 2556 1963 2206 1888 
z
" id="DejaVuSans-437" transform="scale(0.015625)"/>
      <path d="M 1384 459 
L 3053 459 
L 3053 3041 
L 1844 3041 
L 1844 2603 
Q 1844 1316 1475 628 
L 1384 459 
z
M 550 459 
Q 834 584 959 850 
Q 1266 1509 1266 2838 
L 1266 3500 
L 3631 3500 
L 3631 459 
L 4091 459 
L 4091 -884 
L 3631 -884 
L 3631 0 
L 794 0 
L 794 -884 
L 334 -884 
L 334 459 
L 550 459 
z
" id="DejaVuSans-434" transform="scale(0.015625)"/>
      <path d="M 581 3500 
L 1153 3500 
L 1153 1856 
L 2775 3500 
L 3481 3500 
L 2144 2147 
L 3653 0 
L 3009 0 
L 1769 1766 
L 1153 1141 
L 1153 0 
L 581 0 
L 581 3500 
z
" id="DejaVuSans-43a" transform="scale(0.015625)"/>
      <path d="M 188 3500 
L 3541 3500 
L 3541 3041 
L 2147 3041 
L 2147 0 
L 1581 0 
L 1581 3041 
L 188 3041 
L 188 3500 
z
" id="DejaVuSans-442" transform="scale(0.015625)"/>
      <path d="M 1156 1613 
L 1156 459 
L 1975 459 
Q 2369 459 2575 607 
Q 2781 756 2781 1038 
Q 2781 1319 2575 1466 
Q 2369 1613 1975 1613 
L 1156 1613 
z
M 1156 3041 
L 1156 2072 
L 1913 2072 
Q 2238 2072 2444 2201 
Q 2650 2331 2650 2563 
Q 2650 2794 2444 2917 
Q 2238 3041 1913 3041 
L 1156 3041 
z
M 581 3500 
L 1950 3500 
Q 2566 3500 2897 3275 
Q 3228 3050 3228 2634 
Q 3228 2313 3059 2123 
Q 2891 1934 2559 1888 
Q 2956 1813 3175 1575 
Q 3394 1338 3394 981 
Q 3394 513 3033 256 
Q 2672 0 2003 0 
L 581 0 
L 581 3500 
z
" id="DejaVuSans-432" transform="scale(0.015625)"/>
      <path d="M 2841 2188 
Q 3044 2119 3236 1894 
Q 3428 1669 3622 1275 
L 4263 0 
L 3584 0 
L 2988 1197 
Q 2756 1666 2539 1819 
Q 2322 1972 1947 1972 
L 1259 1972 
L 1259 0 
L 628 0 
L 628 4666 
L 2053 4666 
Q 2853 4666 3247 4331 
Q 3641 3997 3641 3322 
Q 3641 2881 3436 2590 
Q 3231 2300 2841 2188 
z
M 1259 4147 
L 1259 2491 
L 2053 2491 
Q 2509 2491 2742 2702 
Q 2975 2913 2975 3322 
Q 2975 3731 2742 3939 
Q 2509 4147 2053 4147 
L 1259 4147 
z
" id="DejaVuSans-52" transform="scale(0.015625)"/>
      <path d="M 4122 4306 
L 4122 3641 
Q 3803 3938 3442 4084 
Q 3081 4231 2675 4231 
Q 1875 4231 1450 3742 
Q 1025 3253 1025 2328 
Q 1025 1406 1450 917 
Q 1875 428 2675 428 
Q 3081 428 3442 575 
Q 3803 722 4122 1019 
L 4122 359 
Q 3791 134 3420 21 
Q 3050 -91 2638 -91 
Q 1578 -91 968 557 
Q 359 1206 359 2328 
Q 359 3453 968 4101 
Q 1578 4750 2638 4750 
Q 3056 4750 3426 4639 
Q 3797 4528 4122 4306 
z
" id="DejaVuSans-43" transform="scale(0.015625)"/>
      <path d="M 313 2009 
L 1997 2009 
L 1997 1497 
L 313 1497 
L 313 2009 
z
" id="DejaVuSans-2d" transform="scale(0.015625)"/>
      <path d="M 2625 0 
L 2625 1472 
L 1553 1472 
Q 1075 1472 756 1769 
Q 469 2038 469 2613 
L 469 3500 
L 1044 3500 
L 1044 2666 
Q 1044 2300 1206 2116 
Q 1372 1931 1697 1931 
L 2625 1931 
L 2625 3500 
L 3200 3500 
L 3200 0 
L 2625 0 
z
" id="DejaVuSans-447" transform="scale(0.015625)"/>
     </defs>
     <use xlink:href="#DejaVuSans-41f"/>
     <use x="75.195312" xlink:href="#DejaVuSans-440"/>
     <use x="138.671875" xlink:href="#DejaVuSans-43e"/>
     <use x="199.853516" xlink:href="#DejaVuSans-446"/>
     <use x="267.919922" xlink:href="#DejaVuSans-435"/>
     <use x="329.443359" xlink:href="#DejaVuSans-441"/>
     <use x="384.423828" xlink:href="#DejaVuSans-441"/>
     <use x="439.404297" xlink:href="#DejaVuSans-20"/>
     <use x="471.191406" xlink:href="#DejaVuSans-437"/>
     <use x="524.365234" xlink:href="#DejaVuSans-430"/>
     <use x="585.644531" xlink:href="#DejaVuSans-440"/>
     <use x="649.121094" xlink:href="#DejaVuSans-44f"/>
     <use x="709.277344" xlink:href="#DejaVuSans-434"/>
     <use x="778.417969" xlink:href="#DejaVuSans-430"/>
     <use x="839.697266" xlink:href="#DejaVuSans-20"/>
     <use x="871.484375" xlink:href="#DejaVuSans-438"/>
     <use x="936.474609" xlink:href="#DejaVuSans-20"/>
     <use x="968.261719" xlink:href="#DejaVuSans-440"/>
     <use x="1031.738281" xlink:href="#DejaVuSans-430"/>
     <use x="1093.017578" xlink:href="#DejaVuSans-437"/>
     <use x="1146.191406" xlink:href="#DejaVuSans-440"/>
     <use x="1209.667969" xlink:href="#DejaVuSans-44f"/>
     <use x="1269.824219" xlink:href="#DejaVuSans-434"/>
     <use x="1338.964844" xlink:href="#DejaVuSans-430"/>
     <use x="1400.244141" xlink:href="#DejaVuSans-20"/>
     <use x="1432.03125" xlink:href="#DejaVuSans-43a"/>
     <use x="1492.431641" xlink:href="#DejaVuSans-43e"/>
     <use x="1553.613281" xlink:href="#DejaVuSans-43d"/>
     <use x="1618.994141" xlink:href="#DejaVuSans-434"/>
     <use x="1688.134766" xlink:href="#DejaVuSans-435"/>
     <use x="1749.658203" xlink:href="#DejaVuSans-43d"/>
     <use x="1815.039062" xlink:href="#DejaVuSans-441"/>
     <use x="1870.019531" xlink:href="#DejaVuSans-430"/>
     <use x="1931.298828" xlink:href="#DejaVuSans-442"/>
     <use x="1989.550781" xlink:href="#DejaVuSans-43e"/>
     <use x="2050.732422" xlink:href="#DejaVuSans-440"/>
     <use x="2114.208984" xlink:href="#DejaVuSans-430"/>
     <use x="2175.488281" xlink:href="#DejaVuSans-20"/>
     <use x="2207.275391" xlink:href="#DejaVuSans-432"/>
     <use x="2266.210938" xlink:href="#DejaVuSans-20"/>
     <use x="2297.998047" xlink:href="#DejaVuSans-52"/>
     <use x="2362.480469" xlink:href="#DejaVuSans-43"/>
     <use x="2432.304688" xlink:href="#DejaVuSans-2d"/>
     <use x="2468.388672" xlink:href="#DejaVuSans-446"/>
     <use x="2536.455078" xlink:href="#DejaVuSans-435"/>
     <use x="2597.978516" xlink:href="#DejaVuSans-43f"/>
     <use x="2663.359375" xlink:href="#DejaVuSans-43e"/>
     <use x="2724.541016" xlink:href="#DejaVuSans-447"/>
     <use x="2783.623047" xlink:href="#DejaVuSans-43a"/>
     <use x="2844.023438" xlink:href="#DejaVuSans-435"/>
    </g>
   </g>
   <g id="legend_1">
    <g id="patch_7">
     <path d="M 849.635938 109.078125 
L 900.2 109.078125 
Q 902.2 109.078125 902.2 107.078125 
L 902.2 93.4 
Q 902.2 91.4 900.2 91.4 
L 849.635938 91.4 
Q 847.635938 91.4 847.635938 93.4 
L 847.635938 107.078125 
Q 847.635938 109.078125 849.635938 109.078125 
z
" style="fill:#ffffff;opacity:0.8;stroke:#cccccc;stroke-linejoin:miter;"/>
    </g>
    <g id="line2d_144">
     <path d="M 851.635938 99.498438 
L 871.635938 99.498438 
" style="fill:none;stroke:#00008b;stroke-linecap:square;stroke-width:1.5;"/>
    </g>
    <g id="line2d_145">
     <g>
      <use style="fill:#00008b;stroke:#00008b;" x="861.635938" xlink:href="#m10c29358f7" y="99.498438"/>
     </g>
    </g>
    <g id="text_21">
     <!-- V(t) -->
     <g transform="translate(879.635938 102.998438)scale(0.1 -0.1)">
      <defs>
       <path d="M 1831 0 
L 50 4666 
L 709 4666 
L 2188 738 
L 3669 4666 
L 4325 4666 
L 2547 0 
L 1831 0 
z
" id="DejaVuSans-56" transform="scale(0.015625)"/>
       <path d="M 1984 4856 
Q 1566 4138 1362 3434 
Q 1159 2731 1159 2009 
Q 1159 1288 1364 580 
Q 1569 -128 1984 -844 
L 1484 -844 
Q 1016 -109 783 600 
Q 550 1309 550 2009 
Q 550 2706 781 3412 
Q 1013 4119 1484 4856 
L 1984 4856 
z
" id="DejaVuSans-28" transform="scale(0.015625)"/>
       <path d="M 1172 4494 
L 1172 3500 
L 2356 3500 
L 2356 3053 
L 1172 3053 
L 1172 1153 
Q 1172 725 1289 603 
Q 1406 481 1766 481 
L 2356 481 
L 2356 0 
L 1766 0 
Q 1100 0 847 248 
Q 594 497 594 1153 
L 594 3053 
L 172 3053 
L 172 3500 
L 594 3500 
L 594 4494 
L 1172 4494 
z
" id="DejaVuSans-74" transform="scale(0.015625)"/>
       <path d="M 513 4856 
L 1013 4856 
Q 1481 4119 1714 3412 
Q 1947 2706 1947 2009 
Q 1947 1309 1714 600 
Q 1481 -109 1013 -844 
L 513 -844 
Q 928 -128 1133 580 
Q 1338 1288 1338 2009 
Q 1338 2731 1133 3434 
Q 928 4138 513 4856 
z
" id="DejaVuSans-29" transform="scale(0.015625)"/>
      </defs>
      <use xlink:href="#DejaVuSans-56"/>
      <use x="68.408203" xlink:href="#DejaVuSans-28"/>
      <use x="107.421875" xlink:href="#DejaVuSans-74"/>
      <use x="146.630859" xlink:href="#DejaVuSans-29"/>
     </g>
    </g>
   </g>
  </g>
  <g id="text_22">
   <!-- Время заряда: 9.350с -->
   <g transform="translate(504 360)scale(0.1 -0.1)">
    <defs>
     <path d="M 750 794 
L 1409 794 
L 1409 0 
L 750 0 
L 750 794 
z
M 750 3309 
L 1409 3309 
L 1409 2516 
L 750 2516 
L 750 3309 
z
" id="DejaVuSans-3a" transform="scale(0.015625)"/>
     <path d="M 703 97 
L 703 672 
Q 941 559 1184 500 
Q 1428 441 1663 441 
Q 2288 441 2617 861 
Q 2947 1281 2994 2138 
Q 2813 1869 2534 1725 
Q 2256 1581 1919 1581 
Q 1219 1581 811 2004 
Q 403 2428 403 3163 
Q 403 3881 828 4315 
Q 1253 4750 1959 4750 
Q 2769 4750 3195 4129 
Q 3622 3509 3622 2328 
Q 3622 1225 3098 567 
Q 2575 -91 1691 -91 
Q 1453 -91 1209 -44 
Q 966 3 703 97 
z
M 1959 2075 
Q 2384 2075 2632 2365 
Q 2881 2656 2881 3163 
Q 2881 3666 2632 3958 
Q 2384 4250 1959 4250 
Q 1534 4250 1286 3958 
Q 1038 3666 1038 3163 
Q 1038 2656 1286 2365 
Q 1534 2075 1959 2075 
z
" id="DejaVuSans-39" transform="scale(0.015625)"/>
    </defs>
    <use xlink:href="#DejaVuSans-412"/>
    <use x="68.603516" xlink:href="#DejaVuSans-440"/>
    <use x="132.080078" xlink:href="#DejaVuSans-435"/>
    <use x="193.603516" xlink:href="#DejaVuSans-43c"/>
    <use x="269.042969" xlink:href="#DejaVuSans-44f"/>
    <use x="329.199219" xlink:href="#DejaVuSans-20"/>
    <use x="360.986328" xlink:href="#DejaVuSans-437"/>
    <use x="414.160156" xlink:href="#DejaVuSans-430"/>
    <use x="475.439453" xlink:href="#DejaVuSans-440"/>
    <use x="538.916016" xlink:href="#DejaVuSans-44f"/>
    <use x="599.072266" xlink:href="#DejaVuSans-434"/>
    <use x="668.212891" xlink:href="#DejaVuSans-430"/>
    <use x="729.492188" xlink:href="#DejaVuSans-3a"/>
    <use x="763.183594" xlink:href="#DejaVuSans-20"/>
    <use x="794.970703" xlink:href="#DejaVuSans-39"/>
    <use x="858.59375" xlink:href="#DejaVuSans-2e"/>
    <use x="890.380859" xlink:href="#DejaVuSans-33"/>
    <use x="954.003906" xlink:href="#DejaVuSans-35"/>
    <use x="1017.626953" xlink:href="#DejaVuSans-30"/>
    <use x="1081.25" xlink:href="#DejaVuSans-441"/>
   </g>
  </g>
  <g id="text_23">
   <!-- Время разряда: 7.873с -->
   <g transform="translate(504 432)scale(0.1 -0.1)">
    <defs>
     <path d="M 525 4666 
L 3525 4666 
L 3525 4397 
L 1831 0 
L 1172 0 
L 2766 4134 
L 525 4134 
L 525 4666 
z
" id="DejaVuSans-37" transform="scale(0.015625)"/>
    </defs>
    <use xlink:href="#DejaVuSans-412"/>
    <use x="68.603516" xlink:href="#DejaVuSans-440"/>
    <use x="132.080078" xlink:href="#DejaVuSans-435"/>
    <use x="193.603516" xlink:href="#DejaVuSans-43c"/>
    <use x="269.042969" xlink:href="#DejaVuSans-44f"/>
    <use x="329.199219" xlink:href="#DejaVuSans-20"/>
    <use x="360.986328" xlink:href="#DejaVuSans-440"/>
    <use x="424.462891" xlink:href="#DejaVuSans-430"/>
    <use x="485.742188" xlink:href="#DejaVuSans-437"/>
    <use x="538.916016" xlink:href="#DejaVuSans-440"/>
    <use x="602.392578" xlink:href="#DejaVuSans-44f"/>
    <use x="662.548828" xlink:href="#DejaVuSans-434"/>
    <use x="731.689453" xlink:href="#DejaVuSans-430"/>
    <use x="792.96875" xlink:href="#DejaVuSans-3a"/>
    <use x="826.660156" xlink:href="#DejaVuSans-20"/>
    <use x="858.447266" xlink:href="#DejaVuSans-37"/>
    <use x="922.070312" xlink:href="#DejaVuSans-2e"/>
    <use x="953.857422" xlink:href="#DejaVuSans-38"/>
    <use x="1017.480469" xlink:href="#DejaVuSans-37"/>
    <use x="1081.103516" xlink:href="#DejaVuSans-33"/>
    <use x="1144.726562" xlink:href="#DejaVuSans-441"/>
   </g>
  </g>
 </g>
 <defs>
  <clipPath id="pe7079d166f">
   <rect height="554.4" width="781.2" x="126" y="86.4"/>
  </clipPath>
 </defs>
</svg>
